<svg width="14" height="17" viewBox="0 0 14 17" fill="none" xmlns="http://www.w3.org/2000/svg">
<path d="M9.86839 10.0813H9.24471L9.02366 9.8343C9.79734 8.79142 10.2631 7.4375 10.2631 5.96466C10.2631 2.68049 7.96577 0.0184021 5.13156 0.0184021C2.29736 0.0184021 0 2.68049 0 5.96466C0 9.24882 2.29736 11.9109 5.13156 11.9109C6.40261 11.9109 7.57103 11.3712 8.47103 10.4747L8.68419 10.7308V11.4535L12.6315 16.0184L13.8079 14.6553L9.86839 10.0813ZM5.13156 10.0813C3.16578 10.0813 1.57894 8.24253 1.57894 5.96466C1.57894 3.68678 3.16578 1.84802 5.13156 1.84802C7.09735 1.84802 8.68419 3.68678 8.68419 5.96466C8.68419 8.24253 7.09735 10.0813 5.13156 10.0813Z" fill="#666666" fill-opacity="0.866667"/>
</svg>
