<svg width="24" height="25" viewBox="0 0 24 25" fill="none" xmlns="http://www.w3.org/2000/svg">
<path d="M17.4535 13.5897C18.3532 13.5897 19.1449 13.0977 19.5527 12.3537L23.8471 4.56571C24.291 3.77371 23.7152 2.78971 22.8035 2.78971H5.05012L3.92254 0.389709H0V2.78971H2.39911L6.71751 11.8977L5.09811 14.8257C4.22243 16.4337 5.374 18.3897 7.19733 18.3897H21.592V15.9897H7.19733L8.51684 13.5897H17.4535ZM6.1897 5.18971H20.7643L17.4535 11.1897H9.03265L6.1897 5.18971ZM7.19733 19.5897C5.87782 19.5897 4.81021 20.6697 4.81021 21.9897C4.81021 23.3097 5.87782 24.3897 7.19733 24.3897C8.51684 24.3897 9.59644 23.3097 9.59644 21.9897C9.59644 20.6697 8.51684 19.5897 7.19733 19.5897ZM19.1929 19.5897C17.8734 19.5897 16.8058 20.6697 16.8058 21.9897C16.8058 23.3097 17.8734 24.3897 19.1929 24.3897C20.5124 24.3897 21.592 23.3097 21.592 21.9897C21.592 20.6697 20.5124 19.5897 19.1929 19.5897Z" fill="#FAFAFA"/>
</svg>
